<svg xmlns="http://www.w3.org/2000/svg" viewBox="0 0 640 320" shape-rendering="crispEdges" aria-hidden="true"><rect width="640" height="320" fill="#899bd2"/><rect y="84" width="640" height="72" fill="#a9a4dc"/><rect y="156" width="640" height="66" fill="#c9b4e5"/><rect y="222" width="640" height="98" fill="#edbfd8"/><rect x="486" y="48" width="10" height="10" fill="#fff1c1"/><rect x="496" y="48" width="10" height="10" fill="#fff1c1"/><rect x="506" y="48" width="10" height="10" fill="#fff1c1"/><rect x="516" y="48" width="10" height="10" fill="#fff1c1"/><rect x="466" y="58" width="10" height="10" fill="#fff1c1"/><rect x="476" y="58" width="10" height="10" fill="#fff1c1"/><rect x="486" y="58" width="10" height="10" fill="#fff1c1"/><rect x="496" y="58" width="10" height="10" fill="#fff1c1"/><rect x="506" y="58" width="10" height="10" fill="#fff1c1"/><rect x="516" y="58" width="10" height="10" fill="#fff1c1"/><rect x="526" y="58" width="10" height="10" fill="#fff1c1"/><rect x="536" y="58" width="10" height="10" fill="#fff1c1"/><rect x="456" y="68" width="10" height="10" fill="#fff1c1"/><rect x="466" y="68" width="10" height="10" fill="#fff1c1"/><rect x="476" y="68" width="10" height="10" fill="#fff1c1"/><rect x="486" y="68" width="10" height="10" fill="#fff1c1"/><rect x="496" y="68" width="10" height="10" fill="#fff1c1"/><rect x="506" y="68" width="10" height="10" fill="#fff1c1"/><rect x="516" y="68" width="10" height="10" fill="#fff1c1"/><rect x="526" y="68" width="10" height="10" fill="#fff1c1"/><rect x="536" y="68" width="10" height="10" fill="#fff1c1"/><rect x="546" y="68" width="10" height="10" fill="#fff1c1"/><rect x="456" y="78" width="10" height="10" fill="#fff1c1"/><rect x="466" y="78" width="10" height="10" fill="#fff1c1"/><rect x="476" y="78" width="10" height="10" fill="#fff1c1"/><rect x="486" y="78" width="10" height="10" fill="#fff1c1"/><rect x="496" y="78" width="10" height="10" fill="#fff1c1"/><rect x="506" y="78" width="10" height="10" fill="#fff1c1"/><rect x="516" y="78" width="10" height="10" fill="#fff1c1"/><rect x="526" y="78" width="10" height="10" fill="#fff1c1"/><rect x="536" y="78" width="10" height="10" fill="#fff1c1"/><rect x="546" y="78" width="10" height="10" fill="#fff1c1"/><rect x="456" y="88" width="10" height="10" fill="#fff1c1"/><rect x="466" y="88" width="10" height="10" fill="#fff1c1"/><rect x="476" y="88" width="10" height="10" fill="#fff1c1"/><rect x="486" y="88" width="10" height="10" fill="#fff1c1"/><rect x="496" y="88" width="10" height="10" fill="#fff1c1"/><rect x="506" y="88" width="10" height="10" fill="#fff1c1"/><rect x="516" y="88" width="10" height="10" fill="#fff1c1"/><rect x="526" y="88" width="10" height="10" fill="#fff1c1"/><rect x="536" y="88" width="10" height="10" fill="#fff1c1"/><rect x="546" y="88" width="10" height="10" fill="#fff1c1"/><rect x="456" y="98" width="10" height="10" fill="#fff1c1"/><rect x="466" y="98" width="10" height="10" fill="#fff1c1"/><rect x="476" y="98" width="10" height="10" fill="#fff1c1"/><rect x="486" y="98" width="10" height="10" fill="#fff1c1"/><rect x="496" y="98" width="10" height="10" fill="#fff1c1"/><rect x="506" y="98" width="10" height="10" fill="#fff1c1"/><rect x="516" y="98" width="10" height="10" fill="#fff1c1"/><rect x="526" y="98" width="10" height="10" fill="#fff1c1"/><rect x="536" y="98" width="10" height="10" fill="#fff1c1"/><rect x="546" y="98" width="10" height="10" fill="#fff1c1"/><rect x="466" y="108" width="10" height="10" fill="#fff1c1"/><rect x="476" y="108" width="10" height="10" fill="#fff1c1"/><rect x="486" y="108" width="10" height="10" fill="#fff1c1"/><rect x="496" y="108" width="10" height="10" fill="#fff1c1"/><rect x="506" y="108" width="10" height="10" fill="#fff1c1"/><rect x="516" y="108" width="10" height="10" fill="#fff1c1"/><rect x="526" y="108" width="10" height="10" fill="#fff1c1"/><rect x="536" y="108" width="10" height="10" fill="#fff1c1"/><rect x="486" y="118" width="10" height="10" fill="#fff1c1"/><rect x="496" y="118" width="10" height="10" fill="#fff1c1"/><rect x="506" y="118" width="10" height="10" fill="#fff1c1"/><rect x="516" y="118" width="10" height="10" fill="#fff1c1"/><rect x="476" y="58" width="10" height="10" fill="#ffe29b"/><rect x="486" y="58" width="10" height="10" fill="#ffe29b"/><rect x="496" y="58" width="10" height="10" fill="#ffe29b"/><rect x="506" y="58" width="10" height="10" fill="#ffe29b"/><rect x="456" y="68" width="10" height="10" fill="#ffe29b"/><rect x="466" y="68" width="10" height="10" fill="#ffe29b"/><rect x="476" y="68" width="10" height="10" fill="#ffe29b"/><rect x="486" y="68" width="10" height="10" fill="#ffe29b"/><rect x="496" y="68" width="10" height="10" fill="#ffe29b"/><rect x="506" y="68" width="10" height="10" fill="#ffe29b"/><rect x="516" y="68" width="10" height="10" fill="#ffe29b"/><rect x="526" y="68" width="10" height="10" fill="#ffe29b"/><rect x="446" y="78" width="10" height="10" fill="#ffe29b"/><rect x="456" y="78" width="10" height="10" fill="#ffe29b"/><rect x="466" y="78" width="10" height="10" fill="#ffe29b"/><rect x="476" y="78" width="10" height="10" fill="#ffe29b"/><rect x="486" y="78" width="10" height="10" fill="#ffe29b"/><rect x="496" y="78" width="10" height="10" fill="#ffe29b"/><rect x="506" y="78" width="10" height="10" fill="#ffe29b"/><rect x="516" y="78" width="10" height="10" fill="#ffe29b"/><rect x="526" y="78" width="10" height="10" fill="#ffe29b"/><rect x="536" y="78" width="10" height="10" fill="#ffe29b"/><rect x="446" y="88" width="10" height="10" fill="#ffe29b"/><rect x="456" y="88" width="10" height="10" fill="#ffe29b"/><rect x="466" y="88" width="10" height="10" fill="#ffe29b"/><rect x="476" y="88" width="10" height="10" fill="#ffe29b"/><rect x="486" y="88" width="10" height="10" fill="#ffe29b"/><rect x="496" y="88" width="10" height="10" fill="#ffe29b"/><rect x="506" y="88" width="10" height="10" fill="#ffe29b"/><rect x="516" y="88" width="10" height="10" fill="#ffe29b"/><rect x="526" y="88" width="10" height="10" fill="#ffe29b"/><rect x="536" y="88" width="10" height="10" fill="#ffe29b"/><rect x="446" y="98" width="10" height="10" fill="#ffe29b"/><rect x="456" y="98" width="10" height="10" fill="#ffe29b"/><rect x="466" y="98" width="10" height="10" fill="#ffe29b"/><rect x="476" y="98" width="10" height="10" fill="#ffe29b"/><rect x="486" y="98" width="10" height="10" fill="#ffe29b"/><rect x="496" y="98" width="10" height="10" fill="#ffe29b"/><rect x="506" y="98" width="10" height="10" fill="#ffe29b"/><rect x="516" y="98" width="10" height="10" fill="#ffe29b"/><rect x="526" y="98" width="10" height="10" fill="#ffe29b"/><rect x="536" y="98" width="10" height="10" fill="#ffe29b"/><rect x="446" y="108" width="10" height="10" fill="#ffe29b"/><rect x="456" y="108" width="10" height="10" fill="#ffe29b"/><rect x="466" y="108" width="10" height="10" fill="#ffe29b"/><rect x="476" y="108" width="10" height="10" fill="#ffe29b"/><rect x="486" y="108" width="10" height="10" fill="#ffe29b"/><rect x="496" y="108" width="10" height="10" fill="#ffe29b"/><rect x="506" y="108" width="10" height="10" fill="#ffe29b"/><rect x="516" y="108" width="10" height="10" fill="#ffe29b"/><rect x="526" y="108" width="10" height="10" fill="#ffe29b"/><rect x="536" y="108" width="10" height="10" fill="#ffe29b"/><rect x="456" y="118" width="10" height="10" fill="#ffe29b"/><rect x="466" y="118" width="10" height="10" fill="#ffe29b"/><rect x="476" y="118" width="10" height="10" fill="#ffe29b"/><rect x="486" y="118" width="10" height="10" fill="#ffe29b"/><rect x="496" y="118" width="10" height="10" fill="#ffe29b"/><rect x="506" y="118" width="10" height="10" fill="#ffe29b"/><rect x="516" y="118" width="10" height="10" fill="#ffe29b"/><rect x="526" y="118" width="10" height="10" fill="#ffe29b"/><rect x="476" y="128" width="10" height="10" fill="#ffe29b"/><rect x="486" y="128" width="10" height="10" fill="#ffe29b"/><rect x="496" y="128" width="10" height="10" fill="#ffe29b"/><rect x="506" y="128" width="10" height="10" fill="#ffe29b"/><rect x="112" y="55" width="12" height="12" fill="#e4a8d2"/><rect x="124" y="55" width="12" height="12" fill="#e4a8d2"/><rect x="136" y="55" width="12" height="12" fill="#e4a8d2"/><rect x="148" y="55" width="12" height="12" fill="#e4a8d2"/><rect x="160" y="55" width="12" height="12" fill="#e4a8d2"/><rect x="172" y="55" width="12" height="12" fill="#e4a8d2"/><rect x="88" y="67" width="12" height="12" fill="#e4a8d2"/><rect x="100" y="67" width="12" height="12" fill="#e4a8d2"/><rect x="112" y="67" width="12" height="12" fill="#e4a8d2"/><rect x="124" y="67" width="12" height="12" fill="#e4a8d2"/><rect x="136" y="67" width="12" height="12" fill="#e4a8d2"/><rect x="148" y="67" width="12" height="12" fill="#e4a8d2"/><rect x="160" y="67" width="12" height="12" fill="#e4a8d2"/><rect x="172" y="67" width="12" height="12" fill="#e4a8d2"/><rect x="184" y="67" width="12" height="12" fill="#e4a8d2"/><rect x="196" y="67" width="12" height="12" fill="#e4a8d2"/><rect x="64" y="79" width="12" height="12" fill="#e4a8d2"/><rect x="76" y="79" width="12" height="12" fill="#e4a8d2"/><rect x="88" y="79" width="12" height="12" fill="#e4a8d2"/><rect x="100" y="79" width="12" height="12" fill="#e4a8d2"/><rect x="112" y="79" width="12" height="12" fill="#e4a8d2"/><rect x="124" y="79" width="12" height="12" fill="#e4a8d2"/><rect x="136" y="79" width="12" height="12" fill="#e4a8d2"/><rect x="148" y="79" width="12" height="12" fill="#e4a8d2"/><rect x="160" y="79" width="12" height="12" fill="#e4a8d2"/><rect x="172" y="79" width="12" height="12" fill="#e4a8d2"/><rect x="184" y="79" width="12" height="12" fill="#e4a8d2"/><rect x="196" y="79" width="12" height="12" fill="#e4a8d2"/><rect x="208" y="79" width="12" height="12" fill="#e4a8d2"/><rect x="220" y="79" width="12" height="12" fill="#e4a8d2"/><rect x="52" y="91" width="12" height="12" fill="#e4a8d2"/><rect x="64" y="91" width="12" height="12" fill="#e4a8d2"/><rect x="76" y="91" width="12" height="12" fill="#e4a8d2"/><rect x="88" y="91" width="12" height="12" fill="#e4a8d2"/><rect x="100" y="91" width="12" height="12" fill="#e4a8d2"/><rect x="112" y="91" width="12" height="12" fill="#e4a8d2"/><rect x="124" y="91" width="12" height="12" fill="#e4a8d2"/><rect x="136" y="91" width="12" height="12" fill="#e4a8d2"/><rect x="148" y="91" width="12" height="12" fill="#e4a8d2"/><rect x="160" y="91" width="12" height="12" fill="#e4a8d2"/><rect x="172" y="91" width="12" height="12" fill="#e4a8d2"/><rect x="184" y="91" width="12" height="12" fill="#e4a8d2"/><rect x="196" y="91" width="12" height="12" fill="#e4a8d2"/><rect x="208" y="91" width="12" height="12" fill="#e4a8d2"/><rect x="220" y="91" width="12" height="12" fill="#e4a8d2"/><rect x="232" y="91" width="12" height="12" fill="#e4a8d2"/><rect x="52" y="103" width="12" height="12" fill="#e4a8d2"/><rect x="64" y="103" width="12" height="12" fill="#e4a8d2"/><rect x="76" y="103" width="12" height="12" fill="#e4a8d2"/><rect x="88" y="103" width="12" height="12" fill="#e4a8d2"/><rect x="100" y="103" width="12" height="12" fill="#e4a8d2"/><rect x="112" y="103" width="12" height="12" fill="#e4a8d2"/><rect x="124" y="103" width="12" height="12" fill="#e4a8d2"/><rect x="136" y="103" width="12" height="12" fill="#e4a8d2"/><rect x="148" y="103" width="12" height="12" fill="#e4a8d2"/><rect x="160" y="103" width="12" height="12" fill="#e4a8d2"/><rect x="172" y="103" width="12" height="12" fill="#e4a8d2"/><rect x="184" y="103" width="12" height="12" fill="#e4a8d2"/><rect x="196" y="103" width="12" height="12" fill="#e4a8d2"/><rect x="208" y="103" width="12" height="12" fill="#e4a8d2"/><rect x="220" y="103" width="12" height="12" fill="#e4a8d2"/><rect x="232" y="103" width="12" height="12" fill="#e4a8d2"/><rect x="76" y="115" width="12" height="12" fill="#e4a8d2"/><rect x="88" y="115" width="12" height="12" fill="#e4a8d2"/><rect x="100" y="115" width="12" height="12" fill="#e4a8d2"/><rect x="112" y="115" width="12" height="12" fill="#e4a8d2"/><rect x="124" y="115" width="12" height="12" fill="#e4a8d2"/><rect x="136" y="115" width="12" height="12" fill="#e4a8d2"/><rect x="148" y="115" width="12" height="12" fill="#e4a8d2"/><rect x="160" y="115" width="12" height="12" fill="#e4a8d2"/><rect x="172" y="115" width="12" height="12" fill="#e4a8d2"/><rect x="184" y="115" width="12" height="12" fill="#e4a8d2"/><rect x="196" y="115" width="12" height="12" fill="#e4a8d2"/><rect x="208" y="115" width="12" height="12" fill="#e4a8d2"/><rect x="112" y="43" width="12" height="12" fill="#fff6ef"/><rect x="124" y="43" width="12" height="12" fill="#fff6ef"/><rect x="136" y="43" width="12" height="12" fill="#fff6ef"/><rect x="148" y="43" width="12" height="12" fill="#fff6ef"/><rect x="160" y="43" width="12" height="12" fill="#fff6ef"/><rect x="172" y="43" width="12" height="12" fill="#fff6ef"/><rect x="88" y="55" width="12" height="12" fill="#fff6ef"/><rect x="100" y="55" width="12" height="12" fill="#fff6ef"/><rect x="112" y="55" width="12" height="12" fill="#fff6ef"/><rect x="124" y="55" width="12" height="12" fill="#fff6ef"/><rect x="136" y="55" width="12" height="12" fill="#fff6ef"/><rect x="148" y="55" width="12" height="12" fill="#fff6ef"/><rect x="160" y="55" width="12" height="12" fill="#fff6ef"/><rect x="172" y="55" width="12" height="12" fill="#fff6ef"/><rect x="184" y="55" width="12" height="12" fill="#fff6ef"/><rect x="196" y="55" width="12" height="12" fill="#fff6ef"/><rect x="64" y="67" width="12" height="12" fill="#fff6ef"/><rect x="76" y="67" width="12" height="12" fill="#fff6ef"/><rect x="88" y="67" width="12" height="12" fill="#fff6ef"/><rect x="100" y="67" width="12" height="12" fill="#fff6ef"/><rect x="112" y="67" width="12" height="12" fill="#fff6ef"/><rect x="124" y="67" width="12" height="12" fill="#fff6ef"/><rect x="136" y="67" width="12" height="12" fill="#fff6ef"/><rect x="148" y="67" width="12" height="12" fill="#fff6ef"/><rect x="160" y="67" width="12" height="12" fill="#fff6ef"/><rect x="172" y="67" width="12" height="12" fill="#fff6ef"/><rect x="184" y="67" width="12" height="12" fill="#fff6ef"/><rect x="196" y="67" width="12" height="12" fill="#fff6ef"/><rect x="208" y="67" width="12" height="12" fill="#fff6ef"/><rect x="220" y="67" width="12" height="12" fill="#fff6ef"/><rect x="52" y="79" width="12" height="12" fill="#fff6ef"/><rect x="64" y="79" width="12" height="12" fill="#fff6ef"/><rect x="76" y="79" width="12" height="12" fill="#fff6ef"/><rect x="88" y="79" width="12" height="12" fill="#fff6ef"/><rect x="100" y="79" width="12" height="12" fill="#fff6ef"/><rect x="112" y="79" width="12" height="12" fill="#fff6ef"/><rect x="124" y="79" width="12" height="12" fill="#fff6ef"/><rect x="136" y="79" width="12" height="12" fill="#fff6ef"/><rect x="148" y="79" width="12" height="12" fill="#fff6ef"/><rect x="160" y="79" width="12" height="12" fill="#fff6ef"/><rect x="172" y="79" width="12" height="12" fill="#fff6ef"/><rect x="184" y="79" width="12" height="12" fill="#fff6ef"/><rect x="196" y="79" width="12" height="12" fill="#fff6ef"/><rect x="208" y="79" width="12" height="12" fill="#fff6ef"/><rect x="220" y="79" width="12" height="12" fill="#fff6ef"/><rect x="232" y="79" width="12" height="12" fill="#fff6ef"/><rect x="52" y="91" width="12" height="12" fill="#fff6ef"/><rect x="64" y="91" width="12" height="12" fill="#fff6ef"/><rect x="76" y="91" width="12" height="12" fill="#fff6ef"/><rect x="88" y="91" width="12" height="12" fill="#fff6ef"/><rect x="100" y="91" width="12" height="12" fill="#fff6ef"/><rect x="112" y="91" width="12" height="12" fill="#fff6ef"/><rect x="124" y="91" width="12" height="12" fill="#fff6ef"/><rect x="136" y="91" width="12" height="12" fill="#fff6ef"/><rect x="148" y="91" width="12" height="12" fill="#fff6ef"/><rect x="160" y="91" width="12" height="12" fill="#fff6ef"/><rect x="172" y="91" width="12" height="12" fill="#fff6ef"/><rect x="184" y="91" width="12" height="12" fill="#fff6ef"/><rect x="196" y="91" width="12" height="12" fill="#fff6ef"/><rect x="208" y="91" width="12" height="12" fill="#fff6ef"/><rect x="220" y="91" width="12" height="12" fill="#fff6ef"/><rect x="232" y="91" width="12" height="12" fill="#fff6ef"/><rect x="76" y="103" width="12" height="12" fill="#fff6ef"/><rect x="88" y="103" width="12" height="12" fill="#fff6ef"/><rect x="100" y="103" width="12" height="12" fill="#fff6ef"/><rect x="112" y="103" width="12" height="12" fill="#fff6ef"/><rect x="124" y="103" width="12" height="12" fill="#fff6ef"/><rect x="136" y="103" width="12" height="12" fill="#fff6ef"/><rect x="148" y="103" width="12" height="12" fill="#fff6ef"/><rect x="160" y="103" width="12" height="12" fill="#fff6ef"/><rect x="172" y="103" width="12" height="12" fill="#fff6ef"/><rect x="184" y="103" width="12" height="12" fill="#fff6ef"/><rect x="196" y="103" width="12" height="12" fill="#fff6ef"/><rect x="208" y="103" width="12" height="12" fill="#fff6ef"/><rect x="345" y="145" width="9" height="9" fill="#df9fce"/><rect x="354" y="145" width="9" height="9" fill="#df9fce"/><rect x="363" y="145" width="9" height="9" fill="#df9fce"/><rect x="372" y="145" width="9" height="9" fill="#df9fce"/><rect x="381" y="145" width="9" height="9" fill="#df9fce"/><rect x="390" y="145" width="9" height="9" fill="#df9fce"/><rect x="327" y="154" width="9" height="9" fill="#df9fce"/><rect x="336" y="154" width="9" height="9" fill="#df9fce"/><rect x="345" y="154" width="9" height="9" fill="#df9fce"/><rect x="354" y="154" width="9" height="9" fill="#df9fce"/><rect x="363" y="154" width="9" height="9" fill="#df9fce"/><rect x="372" y="154" width="9" height="9" fill="#df9fce"/><rect x="381" y="154" width="9" height="9" fill="#df9fce"/><rect x="390" y="154" width="9" height="9" fill="#df9fce"/><rect x="399" y="154" width="9" height="9" fill="#df9fce"/><rect x="408" y="154" width="9" height="9" fill="#df9fce"/><rect x="309" y="163" width="9" height="9" fill="#df9fce"/><rect x="318" y="163" width="9" height="9" fill="#df9fce"/><rect x="327" y="163" width="9" height="9" fill="#df9fce"/><rect x="336" y="163" width="9" height="9" fill="#df9fce"/><rect x="345" y="163" width="9" height="9" fill="#df9fce"/><rect x="354" y="163" width="9" height="9" fill="#df9fce"/><rect x="363" y="163" width="9" height="9" fill="#df9fce"/><rect x="372" y="163" width="9" height="9" fill="#df9fce"/><rect x="381" y="163" width="9" height="9" fill="#df9fce"/><rect x="390" y="163" width="9" height="9" fill="#df9fce"/><rect x="399" y="163" width="9" height="9" fill="#df9fce"/><rect x="408" y="163" width="9" height="9" fill="#df9fce"/><rect x="417" y="163" width="9" height="9" fill="#df9fce"/><rect x="426" y="163" width="9" height="9" fill="#df9fce"/><rect x="300" y="172" width="9" height="9" fill="#df9fce"/><rect x="309" y="172" width="9" height="9" fill="#df9fce"/><rect x="318" y="172" width="9" height="9" fill="#df9fce"/><rect x="327" y="172" width="9" height="9" fill="#df9fce"/><rect x="336" y="172" width="9" height="9" fill="#df9fce"/><rect x="345" y="172" width="9" height="9" fill="#df9fce"/><rect x="354" y="172" width="9" height="9" fill="#df9fce"/><rect x="363" y="172" width="9" height="9" fill="#df9fce"/><rect x="372" y="172" width="9" height="9" fill="#df9fce"/><rect x="381" y="172" width="9" height="9" fill="#df9fce"/><rect x="390" y="172" width="9" height="9" fill="#df9fce"/><rect x="399" y="172" width="9" height="9" fill="#df9fce"/><rect x="408" y="172" width="9" height="9" fill="#df9fce"/><rect x="417" y="172" width="9" height="9" fill="#df9fce"/><rect x="426" y="172" width="9" height="9" fill="#df9fce"/><rect x="435" y="172" width="9" height="9" fill="#df9fce"/><rect x="300" y="181" width="9" height="9" fill="#df9fce"/><rect x="309" y="181" width="9" height="9" fill="#df9fce"/><rect x="318" y="181" width="9" height="9" fill="#df9fce"/><rect x="327" y="181" width="9" height="9" fill="#df9fce"/><rect x="336" y="181" width="9" height="9" fill="#df9fce"/><rect x="345" y="181" width="9" height="9" fill="#df9fce"/><rect x="354" y="181" width="9" height="9" fill="#df9fce"/><rect x="363" y="181" width="9" height="9" fill="#df9fce"/><rect x="372" y="181" width="9" height="9" fill="#df9fce"/><rect x="381" y="181" width="9" height="9" fill="#df9fce"/><rect x="390" y="181" width="9" height="9" fill="#df9fce"/><rect x="399" y="181" width="9" height="9" fill="#df9fce"/><rect x="408" y="181" width="9" height="9" fill="#df9fce"/><rect x="417" y="181" width="9" height="9" fill="#df9fce"/><rect x="426" y="181" width="9" height="9" fill="#df9fce"/><rect x="435" y="181" width="9" height="9" fill="#df9fce"/><rect x="318" y="190" width="9" height="9" fill="#df9fce"/><rect x="327" y="190" width="9" height="9" fill="#df9fce"/><rect x="336" y="190" width="9" height="9" fill="#df9fce"/><rect x="345" y="190" width="9" height="9" fill="#df9fce"/><rect x="354" y="190" width="9" height="9" fill="#df9fce"/><rect x="363" y="190" width="9" height="9" fill="#df9fce"/><rect x="372" y="190" width="9" height="9" fill="#df9fce"/><rect x="381" y="190" width="9" height="9" fill="#df9fce"/><rect x="390" y="190" width="9" height="9" fill="#df9fce"/><rect x="399" y="190" width="9" height="9" fill="#df9fce"/><rect x="408" y="190" width="9" height="9" fill="#df9fce"/><rect x="417" y="190" width="9" height="9" fill="#df9fce"/><rect x="345" y="136" width="9" height="9" fill="#fff5ee"/><rect x="354" y="136" width="9" height="9" fill="#fff5ee"/><rect x="363" y="136" width="9" height="9" fill="#fff5ee"/><rect x="372" y="136" width="9" height="9" fill="#fff5ee"/><rect x="381" y="136" width="9" height="9" fill="#fff5ee"/><rect x="390" y="136" width="9" height="9" fill="#fff5ee"/><rect x="327" y="145" width="9" height="9" fill="#fff5ee"/><rect x="336" y="145" width="9" height="9" fill="#fff5ee"/><rect x="345" y="145" width="9" height="9" fill="#fff5ee"/><rect x="354" y="145" width="9" height="9" fill="#fff5ee"/><rect x="363" y="145" width="9" height="9" fill="#fff5ee"/><rect x="372" y="145" width="9" height="9" fill="#fff5ee"/><rect x="381" y="145" width="9" height="9" fill="#fff5ee"/><rect x="390" y="145" width="9" height="9" fill="#fff5ee"/><rect x="399" y="145" width="9" height="9" fill="#fff5ee"/><rect x="408" y="145" width="9" height="9" fill="#fff5ee"/><rect x="309" y="154" width="9" height="9" fill="#fff5ee"/><rect x="318" y="154" width="9" height="9" fill="#fff5ee"/><rect x="327" y="154" width="9" height="9" fill="#fff5ee"/><rect x="336" y="154" width="9" height="9" fill="#fff5ee"/><rect x="345" y="154" width="9" height="9" fill="#fff5ee"/><rect x="354" y="154" width="9" height="9" fill="#fff5ee"/><rect x="363" y="154" width="9" height="9" fill="#fff5ee"/><rect x="372" y="154" width="9" height="9" fill="#fff5ee"/><rect x="381" y="154" width="9" height="9" fill="#fff5ee"/><rect x="390" y="154" width="9" height="9" fill="#fff5ee"/><rect x="399" y="154" width="9" height="9" fill="#fff5ee"/><rect x="408" y="154" width="9" height="9" fill="#fff5ee"/><rect x="417" y="154" width="9" height="9" fill="#fff5ee"/><rect x="426" y="154" width="9" height="9" fill="#fff5ee"/><rect x="300" y="163" width="9" height="9" fill="#fff5ee"/><rect x="309" y="163" width="9" height="9" fill="#fff5ee"/><rect x="318" y="163" width="9" height="9" fill="#fff5ee"/><rect x="327" y="163" width="9" height="9" fill="#fff5ee"/><rect x="336" y="163" width="9" height="9" fill="#fff5ee"/><rect x="345" y="163" width="9" height="9" fill="#fff5ee"/><rect x="354" y="163" width="9" height="9" fill="#fff5ee"/><rect x="363" y="163" width="9" height="9" fill="#fff5ee"/><rect x="372" y="163" width="9" height="9" fill="#fff5ee"/><rect x="381" y="163" width="9" height="9" fill="#fff5ee"/><rect x="390" y="163" width="9" height="9" fill="#fff5ee"/><rect x="399" y="163" width="9" height="9" fill="#fff5ee"/><rect x="408" y="163" width="9" height="9" fill="#fff5ee"/><rect x="417" y="163" width="9" height="9" fill="#fff5ee"/><rect x="426" y="163" width="9" height="9" fill="#fff5ee"/><rect x="435" y="163" width="9" height="9" fill="#fff5ee"/><rect x="300" y="172" width="9" height="9" fill="#fff5ee"/><rect x="309" y="172" width="9" height="9" fill="#fff5ee"/><rect x="318" y="172" width="9" height="9" fill="#fff5ee"/><rect x="327" y="172" width="9" height="9" fill="#fff5ee"/><rect x="336" y="172" width="9" height="9" fill="#fff5ee"/><rect x="345" y="172" width="9" height="9" fill="#fff5ee"/><rect x="354" y="172" width="9" height="9" fill="#fff5ee"/><rect x="363" y="172" width="9" height="9" fill="#fff5ee"/><rect x="372" y="172" width="9" height="9" fill="#fff5ee"/><rect x="381" y="172" width="9" height="9" fill="#fff5ee"/><rect x="390" y="172" width="9" height="9" fill="#fff5ee"/><rect x="399" y="172" width="9" height="9" fill="#fff5ee"/><rect x="408" y="172" width="9" height="9" fill="#fff5ee"/><rect x="417" y="172" width="9" height="9" fill="#fff5ee"/><rect x="426" y="172" width="9" height="9" fill="#fff5ee"/><rect x="435" y="172" width="9" height="9" fill="#fff5ee"/><rect x="318" y="181" width="9" height="9" fill="#fff5ee"/><rect x="327" y="181" width="9" height="9" fill="#fff5ee"/><rect x="336" y="181" width="9" height="9" fill="#fff5ee"/><rect x="345" y="181" width="9" height="9" fill="#fff5ee"/><rect x="354" y="181" width="9" height="9" fill="#fff5ee"/><rect x="363" y="181" width="9" height="9" fill="#fff5ee"/><rect x="372" y="181" width="9" height="9" fill="#fff5ee"/><rect x="381" y="181" width="9" height="9" fill="#fff5ee"/><rect x="390" y="181" width="9" height="9" fill="#fff5ee"/><rect x="399" y="181" width="9" height="9" fill="#fff5ee"/><rect x="408" y="181" width="9" height="9" fill="#fff5ee"/><rect x="417" y="181" width="9" height="9" fill="#fff5ee"/><rect x="535" y="118" width="7" height="7" fill="#e4a8d2"/><rect x="542" y="118" width="7" height="7" fill="#e4a8d2"/><rect x="549" y="118" width="7" height="7" fill="#e4a8d2"/><rect x="556" y="118" width="7" height="7" fill="#e4a8d2"/><rect x="563" y="118" width="7" height="7" fill="#e4a8d2"/><rect x="570" y="118" width="7" height="7" fill="#e4a8d2"/><rect x="521" y="125" width="7" height="7" fill="#e4a8d2"/><rect x="528" y="125" width="7" height="7" fill="#e4a8d2"/><rect x="535" y="125" width="7" height="7" fill="#e4a8d2"/><rect x="542" y="125" width="7" height="7" fill="#e4a8d2"/><rect x="549" y="125" width="7" height="7" fill="#e4a8d2"/><rect x="556" y="125" width="7" height="7" fill="#e4a8d2"/><rect x="563" y="125" width="7" height="7" fill="#e4a8d2"/><rect x="570" y="125" width="7" height="7" fill="#e4a8d2"/><rect x="577" y="125" width="7" height="7" fill="#e4a8d2"/><rect x="584" y="125" width="7" height="7" fill="#e4a8d2"/><rect x="507" y="132" width="7" height="7" fill="#e4a8d2"/><rect x="514" y="132" width="7" height="7" fill="#e4a8d2"/><rect x="521" y="132" width="7" height="7" fill="#e4a8d2"/><rect x="528" y="132" width="7" height="7" fill="#e4a8d2"/><rect x="535" y="132" width="7" height="7" fill="#e4a8d2"/><rect x="542" y="132" width="7" height="7" fill="#e4a8d2"/><rect x="549" y="132" width="7" height="7" fill="#e4a8d2"/><rect x="556" y="132" width="7" height="7" fill="#e4a8d2"/><rect x="563" y="132" width="7" height="7" fill="#e4a8d2"/><rect x="570" y="132" width="7" height="7" fill="#e4a8d2"/><rect x="577" y="132" width="7" height="7" fill="#e4a8d2"/><rect x="584" y="132" width="7" height="7" fill="#e4a8d2"/><rect x="591" y="132" width="7" height="7" fill="#e4a8d2"/><rect x="598" y="132" width="7" height="7" fill="#e4a8d2"/><rect x="500" y="139" width="7" height="7" fill="#e4a8d2"/><rect x="507" y="139" width="7" height="7" fill="#e4a8d2"/><rect x="514" y="139" width="7" height="7" fill="#e4a8d2"/><rect x="521" y="139" width="7" height="7" fill="#e4a8d2"/><rect x="528" y="139" width="7" height="7" fill="#e4a8d2"/><rect x="535" y="139" width="7" height="7" fill="#e4a8d2"/><rect x="542" y="139" width="7" height="7" fill="#e4a8d2"/><rect x="549" y="139" width="7" height="7" fill="#e4a8d2"/><rect x="556" y="139" width="7" height="7" fill="#e4a8d2"/><rect x="563" y="139" width="7" height="7" fill="#e4a8d2"/><rect x="570" y="139" width="7" height="7" fill="#e4a8d2"/><rect x="577" y="139" width="7" height="7" fill="#e4a8d2"/><rect x="584" y="139" width="7" height="7" fill="#e4a8d2"/><rect x="591" y="139" width="7" height="7" fill="#e4a8d2"/><rect x="598" y="139" width="7" height="7" fill="#e4a8d2"/><rect x="605" y="139" width="7" height="7" fill="#e4a8d2"/><rect x="500" y="146" width="7" height="7" fill="#e4a8d2"/><rect x="507" y="146" width="7" height="7" fill="#e4a8d2"/><rect x="514" y="146" width="7" height="7" fill="#e4a8d2"/><rect x="521" y="146" width="7" height="7" fill="#e4a8d2"/><rect x="528" y="146" width="7" height="7" fill="#e4a8d2"/><rect x="535" y="146" width="7" height="7" fill="#e4a8d2"/><rect x="542" y="146" width="7" height="7" fill="#e4a8d2"/><rect x="549" y="146" width="7" height="7" fill="#e4a8d2"/><rect x="556" y="146" width="7" height="7" fill="#e4a8d2"/><rect x="563" y="146" width="7" height="7" fill="#e4a8d2"/><rect x="570" y="146" width="7" height="7" fill="#e4a8d2"/><rect x="577" y="146" width="7" height="7" fill="#e4a8d2"/><rect x="584" y="146" width="7" height="7" fill="#e4a8d2"/><rect x="591" y="146" width="7" height="7" fill="#e4a8d2"/><rect x="598" y="146" width="7" height="7" fill="#e4a8d2"/><rect x="605" y="146" width="7" height="7" fill="#e4a8d2"/><rect x="514" y="153" width="7" height="7" fill="#e4a8d2"/><rect x="521" y="153" width="7" height="7" fill="#e4a8d2"/><rect x="528" y="153" width="7" height="7" fill="#e4a8d2"/><rect x="535" y="153" width="7" height="7" fill="#e4a8d2"/><rect x="542" y="153" width="7" height="7" fill="#e4a8d2"/><rect x="549" y="153" width="7" height="7" fill="#e4a8d2"/><rect x="556" y="153" width="7" height="7" fill="#e4a8d2"/><rect x="563" y="153" width="7" height="7" fill="#e4a8d2"/><rect x="570" y="153" width="7" height="7" fill="#e4a8d2"/><rect x="577" y="153" width="7" height="7" fill="#e4a8d2"/><rect x="584" y="153" width="7" height="7" fill="#e4a8d2"/><rect x="591" y="153" width="7" height="7" fill="#e4a8d2"/><rect x="535" y="111" width="7" height="7" fill="#fff6ef"/><rect x="542" y="111" width="7" height="7" fill="#fff6ef"/><rect x="549" y="111" width="7" height="7" fill="#fff6ef"/><rect x="556" y="111" width="7" height="7" fill="#fff6ef"/><rect x="563" y="111" width="7" height="7" fill="#fff6ef"/><rect x="570" y="111" width="7" height="7" fill="#fff6ef"/><rect x="521" y="118" width="7" height="7" fill="#fff6ef"/><rect x="528" y="118" width="7" height="7" fill="#fff6ef"/><rect x="535" y="118" width="7" height="7" fill="#fff6ef"/><rect x="542" y="118" width="7" height="7" fill="#fff6ef"/><rect x="549" y="118" width="7" height="7" fill="#fff6ef"/><rect x="556" y="118" width="7" height="7" fill="#fff6ef"/><rect x="563" y="118" width="7" height="7" fill="#fff6ef"/><rect x="570" y="118" width="7" height="7" fill="#fff6ef"/><rect x="577" y="118" width="7" height="7" fill="#fff6ef"/><rect x="584" y="118" width="7" height="7" fill="#fff6ef"/><rect x="507" y="125" width="7" height="7" fill="#fff6ef"/><rect x="514" y="125" width="7" height="7" fill="#fff6ef"/><rect x="521" y="125" width="7" height="7" fill="#fff6ef"/><rect x="528" y="125" width="7" height="7" fill="#fff6ef"/><rect x="535" y="125" width="7" height="7" fill="#fff6ef"/><rect x="542" y="125" width="7" height="7" fill="#fff6ef"/><rect x="549" y="125" width="7" height="7" fill="#fff6ef"/><rect x="556" y="125" width="7" height="7" fill="#fff6ef"/><rect x="563" y="125" width="7" height="7" fill="#fff6ef"/><rect x="570" y="125" width="7" height="7" fill="#fff6ef"/><rect x="577" y="125" width="7" height="7" fill="#fff6ef"/><rect x="584" y="125" width="7" height="7" fill="#fff6ef"/><rect x="591" y="125" width="7" height="7" fill="#fff6ef"/><rect x="598" y="125" width="7" height="7" fill="#fff6ef"/><rect x="500" y="132" width="7" height="7" fill="#fff6ef"/><rect x="507" y="132" width="7" height="7" fill="#fff6ef"/><rect x="514" y="132" width="7" height="7" fill="#fff6ef"/><rect x="521" y="132" width="7" height="7" fill="#fff6ef"/><rect x="528" y="132" width="7" height="7" fill="#fff6ef"/><rect x="535" y="132" width="7" height="7" fill="#fff6ef"/><rect x="542" y="132" width="7" height="7" fill="#fff6ef"/><rect x="549" y="132" width="7" height="7" fill="#fff6ef"/><rect x="556" y="132" width="7" height="7" fill="#fff6ef"/><rect x="563" y="132" width="7" height="7" fill="#fff6ef"/><rect x="570" y="132" width="7" height="7" fill="#fff6ef"/><rect x="577" y="132" width="7" height="7" fill="#fff6ef"/><rect x="584" y="132" width="7" height="7" fill="#fff6ef"/><rect x="591" y="132" width="7" height="7" fill="#fff6ef"/><rect x="598" y="132" width="7" height="7" fill="#fff6ef"/><rect x="605" y="132" width="7" height="7" fill="#fff6ef"/><rect x="500" y="139" width="7" height="7" fill="#fff6ef"/><rect x="507" y="139" width="7" height="7" fill="#fff6ef"/><rect x="514" y="139" width="7" height="7" fill="#fff6ef"/><rect x="521" y="139" width="7" height="7" fill="#fff6ef"/><rect x="528" y="139" width="7" height="7" fill="#fff6ef"/><rect x="535" y="139" width="7" height="7" fill="#fff6ef"/><rect x="542" y="139" width="7" height="7" fill="#fff6ef"/><rect x="549" y="139" width="7" height="7" fill="#fff6ef"/><rect x="556" y="139" width="7" height="7" fill="#fff6ef"/><rect x="563" y="139" width="7" height="7" fill="#fff6ef"/><rect x="570" y="139" width="7" height="7" fill="#fff6ef"/><rect x="577" y="139" width="7" height="7" fill="#fff6ef"/><rect x="584" y="139" width="7" height="7" fill="#fff6ef"/><rect x="591" y="139" width="7" height="7" fill="#fff6ef"/><rect x="598" y="139" width="7" height="7" fill="#fff6ef"/><rect x="605" y="139" width="7" height="7" fill="#fff6ef"/><rect x="514" y="146" width="7" height="7" fill="#fff6ef"/><rect x="521" y="146" width="7" height="7" fill="#fff6ef"/><rect x="528" y="146" width="7" height="7" fill="#fff6ef"/><rect x="535" y="146" width="7" height="7" fill="#fff6ef"/><rect x="542" y="146" width="7" height="7" fill="#fff6ef"/><rect x="549" y="146" width="7" height="7" fill="#fff6ef"/><rect x="556" y="146" width="7" height="7" fill="#fff6ef"/><rect x="563" y="146" width="7" height="7" fill="#fff6ef"/><rect x="570" y="146" width="7" height="7" fill="#fff6ef"/><rect x="577" y="146" width="7" height="7" fill="#fff6ef"/><rect x="584" y="146" width="7" height="7" fill="#fff6ef"/><rect x="591" y="146" width="7" height="7" fill="#fff6ef"/><rect x="32" y="22" width="6" height="18" fill="#fff4d5"/><rect x="26" y="28" width="18" height="6" fill="#fff4d5"/><rect x="287" y="38" width="5" height="15" fill="#f9e3fb"/><rect x="282" y="43" width="15" height="5" fill="#f9e3fb"/><rect x="605" y="29" width="5" height="15" fill="#fff4d5"/><rect x="600" y="34" width="15" height="5" fill="#fff4d5"/><rect x="262" y="111" width="4" height="12" fill="#fff4d5"/><rect x="258" y="115" width="12" height="4" fill="#fff4d5"/><rect x="74" y="177" width="4" height="12" fill="#fff1fb"/><rect x="70" y="181" width="12" height="4" fill="#fff1fb"/><path d="M0 270h28v-12h40v-16h28v16h25v-8h37v-16h26v16h24v20h31v-24h24v-24h33v-14h24v14h30v24h30v-17h31v-13h38v13h22v25h31v-20h32v-9h38v9h25v16h42v60H0Z" fill="#8069ba"/><path d="M0 290h44v-14h50v14h38v-8h30v8h68v-20h34v-13h35v13h29v20h76v-18h45v-18h29v18h38v18h33v-11h34v11h58v30H0Z" fill="#4f579e"/><rect y="306" width="640" height="14" fill="#303d7c"/><rect x="0" y="291" width="640" height="2" fill="#ffdfdf" opacity=".7"/><rect x="12" y="304" width="70" height="4" fill="#a9b5e8"/><rect x="152" y="310" width="50" height="3" fill="#a9b5e8"/><rect x="420" y="302" width="93" height="3" fill="#b9c1ee"/></svg>